<svg viewBox="-250 -250 500 500" width="500" height="500" xmlns="http://www.w3.org/2000/svg"><path d="M-45.602781689453415,-114.1555715575262L62.897687166664895,-124.81237509029259L-58.56457990093185,-112.91749752419648z" style="fill:rgb(115,253,145)"/><path d="M-45.602781689453415,-114.1555715575262L70.21180633523217,-125.07537451800698L62.897687166664895,-124.81237509029259z" style="fill:rgb(115,252,148)"/><path d="M-45.602781689453415,-114.1555715575262L-58.56457990093185,-112.91749752419648L76.63698715979899,-124.6645820716683z" style="fill:rgb(115,250,159)"/><path d="M-45.602781689453415,-114.1555715575262L76.63698715979899,-124.6645820716683L70.21180633523217,-125.07537451800698z" style="fill:rgb(115,251,154)"/><path d="M76.63698715979899,-124.6645820716683L-58.56457990093185,-112.91749752419648L82.09650337962086,-123.56427962662825z" style="fill:rgb(115,250,160)"/><path d="M86.51493827989444,-121.76307826128708L82.09650337962086,-123.56427962662825L-58.56457990093185,-112.91749752419648z" style="fill:rgb(114,248,165)"/><path d="M-71.04144369998234,-111.09048646843594L91.94285597952337,-116.03473172960094L-58.56457990093185,-112.91749752419648z" style="fill:rgb(112,245,174)"/><path d="M89.81982760790736,-119.25377308097636L86.51493827989444,-121.76307826128708L-58.56457990093185,-112.91749752419648z" style="fill:rgb(113,247,169)"/><path d="M-71.04144369998234,-111.09048646843594L-82.94332572833261,-108.68666209936772L92.40031608305847,-107.49356316169569z" style="fill:rgb(110,242,179)"/><path d="M89.81982760790736,-119.25377308097636L-58.56457990093185,-112.91749752419648L91.94285597952337,-116.03473172960094z" style="fill:rgb(112,245,172)"/><path d="M-82.94332572833261,-108.68666209936772L-94.18131074421238,-105.7201475859412L90.63386734757292,-102.20403493971507z" style="fill:rgb(108,240,182)"/><path d="M-71.04144369998234,-111.09048646843594L92.82146593535315,-112.11065811003705L91.94285597952337,-116.03473172960094z" style="fill:rgb(111,244,175)"/><path d="M-104.66816263350003,-102.20783016793858L82.94486028290997,-89.73699460098426L-94.18131074421238,-105.7201475859412z" style="fill:rgb(106,239,184)"/><path d="M-71.04144369998234,-111.09048646843594L92.40031608305847,-107.49356316169569L92.82146593535315,-112.11065811003705z" style="fill:rgb(110,243,178)"/><path d="M-104.66816263350003,-102.20783016793858L-114.31791581723199,-98.16934055200149L77.00038387763043,-82.65049015363938z" style="fill:rgb(105,238,186)"/><path d="M-82.94332572833261,-108.68666209936772L90.63386734757292,-102.20403493971507L92.40031608305847,-107.49356316169569z" style="fill:rgb(109,242,180)"/><path d="M60.99686747848722,-67.08461463847343L-114.31791581723199,-98.16934055200149L-123.046259513213,-93.6275944632807z" style="fill:rgb(103,236,188)"/><path d="M87.48848605724734,-96.27184814553281L90.63386734757292,-102.20403493971507L-94.18131074421238,-105.7201475859412z" style="fill:rgb(108,240,182)"/><path d="M-123.046259513213,-93.6275944632807L-130.77014953052156,-88.60847277568963L51.0372673341962,-58.76555260745021z" style="fill:rgb(102,235,190)"/><path d="M89.81982760790736,-119.25377308097636L91.94285597952337,-116.03473172960094L143.90632762492208,-55.277901243603694z" style="fill:rgb(218,213,151)"/><path d="M87.48848605724734,-96.27184814553281L-94.18131074421238,-105.7201475859412L82.94486028290997,-89.73699460098426z" style="fill:rgb(107,239,184)"/><path d="M-137.4090776887493,-83.14210474854906L39.87882327998691,-50.2142015113789L-130.77014953052156,-88.60847277568963z" style="fill:rgb(100,234,191)"/><path d="M92.82146593535315,-112.11065811003705L143.90632762492208,-55.277901243603694L91.94285597952337,-116.03473172960094z" style="fill:rgb(204,221,167)"/><path d="M-151.612612943416,-57.55237576779379L-150.0536769983067,-64.42160962294128L-172.94952668733416,16.55020237209776z" style="fill:rgb(10,168,155)"/><path d="M-104.66816263350003,-102.20783016793858L77.00038387763043,-82.65049015363938L82.94486028290997,-89.73699460098426z" style="fill:rgb(106,238,185)"/><path d="M14.434681322695555,-32.84907182072717L-137.4090776887493,-83.14210474854906L-142.8848276052158,-77.26238508726314z" style="fill:rgb(98,232,193)"/><path d="M148.7346908452147,-47.75788803027828L92.82146593535315,-112.11065811003705L92.40031608305847,-107.49356316169569z" style="fill:rgb(192,224,179)"/><path d="M69.67167042374415,-75.07499363085184L77.00038387763043,-82.65049015363938L-114.31791581723199,-98.16934055200149z" style="fill:rgb(104,237,187)"/><path d="M-171.88054137223446,11.435343255045355L-172.94952668733416,16.55020237209776L-150.0536769983067,-64.42160962294128z" style="fill:rgb(8,165,151)"/><path d="M-170.68247404338277,24.799858226131576L-151.7431571756055,-50.45435648971883L-151.612612943416,-57.55237576779379z" style="fill:rgb(29,187,182)"/><path d="M0.44437264076837624,-24.270410214359277L-142.8848276052158,-77.26238508726314L-147.12304003567957,-71.00780295716491z" style="fill:rgb(96,231,194)"/><path d="M69.67167042374415,-75.07499363085184L-114.31791581723199,-98.16934055200149L60.99686747848722,-67.08461463847343z" style="fill:rgb(103,236,188)"/><path d="M92.40031608305847,-107.49356316169569L90.63386734757292,-102.20403493971507L152.03121252647466,-40.07842227798769z" style="fill:rgb(183,224,188)"/><path d="M148.7346908452147,-47.75788803027828L143.90632762492208,-55.277901243603694L92.82146593535315,-112.11065811003705z" style="fill:rgb(199,222,172)"/><path d="M-151.612612943416,-57.55237576779379L-172.94952668733416,16.55020237209776L-172.5669534636952,21.030974149655304z" style="fill:rgb(14,173,164)"/><path d="M-29.17281135904607,-7.936368888552265L-147.12304003567957,-71.00780295716491L-150.0536769983067,-64.42160962294128z" style="fill:rgb(94,229,196)"/><path d="M87.48848605724734,-96.27184814553281L152.03121252647466,-40.07842227798769L90.63386734757292,-102.20403493971507z" style="fill:rgb(175,224,195)"/><path d="M60.99686747848722,-67.08461463847343L-123.046259513213,-93.6275944632807L51.0372673341962,-58.76555260745021z" style="fill:rgb(102,235,189)"/><path d="M-170.68247404338277,24.799858226131576L-123.45134874876615,123.38496567865201L-121.07512799278221,128.18537778445523z" style="fill:rgb(14,72,147)"/><path d="M-44.389151681204126,-0.42551482660723816L-150.0536769983067,-64.42160962294128L-151.612612943416,-57.55237576779379z" style="fill:rgb(91,227,197)"/><path d="M-170.68247404338277,24.799858226131576L-151.612612943416,-57.55237576779379L-172.5669534636952,21.030974149655304z" style="fill:rgb(22,181,175)"/><path d="M153.68203329591648,-24.578083381955746L154.36021737804688,74.50077090133091L154.37500165296774,66.2768569952513z" style="fill:rgb(253,127,146)"/><path d="M148.7346908452147,-47.75788803027828L92.40031608305847,-107.49356316169569L152.03121252647466,-40.07842227798769z" style="fill:rgb(184,224,186)"/><path d="M-150.3977411242107,-43.18707568611073L-151.7431571756055,-50.45435648971883L-147.83591542696684,31.429801982274736z" style="fill:rgb(60,208,199)"/><path d="M-170.68247404338277,24.799858226131576L-121.07512799278221,128.18537778445523L-117.25083741860412,132.18815854497066z" style="fill:rgb(19,69,162)"/><path d="M39.87882327998691,-50.2142015113789L51.0372673341962,-58.76555260745021L-130.77014953052156,-88.60847277568963z" style="fill:rgb(101,235,190)"/><path d="M-74.541309279206,12.71559660830493L-151.612612943416,-57.55237576779379L-151.7431571756055,-50.45435648971883z" style="fill:rgb(86,224,199)"/><path d="M152.70997725325174,82.57515697752947L154.36021737804688,74.50077090133091L153.68203329591648,-24.578083381955746z" style="fill:rgb(250,118,159)"/><path d="M-170.68247404338277,24.799858226131576L-172.5669534636952,21.030974149655304L-123.45134874876615,123.38496567865201z" style="fill:rgb(14,72,147)"/><path d="M87.48848605724734,-96.27184814553281L82.94486028290997,-89.73699460098426L153.7050731941359,-32.32218339157866z" style="fill:rgb(169,223,200)"/><path d="M-150.3977411242107,-43.18707568611073L-127.72298786689213,29.0413565025869L-151.7431571756055,-50.45435648971883z" style="fill:rgb(73,216,201)"/><path d="M-170.68247404338277,24.799858226131576L-167.26452277224914,27.784415578244367L-151.7431571756055,-50.45435648971883z" style="fill:rgb(31,189,184)"/><path d="M27.63270555949574,-41.53723022517926L39.87882327998691,-50.2142015113789L-137.4090776887493,-83.14210474854906z" style="fill:rgb(100,234,192)"/><path d="M149.39767308857697,90.3960436533588L152.70997725325174,82.57515697752947L151.9070095485093,-16.940833019613965z" style="fill:rgb(245,108,172)"/><path d="M87.48848605724734,-96.27184814553281L153.7050731941359,-32.32218339157866L152.03121252647466,-40.07842227798769z" style="fill:rgb(175,224,195)"/><path d="M-162.3034312959083,29.919447879507956L-151.7431571756055,-50.45435648971883L-167.26452277224914,27.784415578244367z" style="fill:rgb(40,195,190)"/><path d="M-117.25083741860412,132.18815854497066L-111.97865927993726,135.31603370521404L-162.3034312959083,29.919447879507956z" style="fill:rgb(27,66,177)"/><path d="M153.68203329591648,-24.578083381955746L154.37500165296774,66.2768569952513L153.7050731941359,-32.32218339157866z" style="fill:rgb(253,127,146)"/><path d="M82.94486028290997,-89.73699460098426L77.00038387763043,-82.65049015363938L153.68203329591648,-24.578083381955746z" style="fill:rgb(164,221,205)"/><path d="M27.63270555949574,-41.53723022517926L-137.4090776887493,-83.14210474854906L14.434681322695555,-32.84907182072717z" style="fill:rgb(99,233,193)"/><path d="M-170.68247404338277,24.799858226131576L-117.25083741860412,132.18815854497066L-167.26452277224914,27.784415578244367z" style="fill:rgb(19,69,162)"/><path d="M-162.3034312959083,29.919447879507956L-111.97865927993726,135.31603370521404L-105.28175578056567,137.50100481159572z" style="fill:rgb(37,64,192)"/><path d="M-162.3034312959083,29.919447879507956L-155.81338768906417,31.149177771311138L-151.7431571756055,-50.45435648971883z" style="fill:rgb(48,201,195)"/><path d="M149.39767308857697,90.3960436533588L142.99959832604833,-2.3849294429954213L144.42028630863967,97.85766135145109z" style="fill:rgb(237,99,185)"/><path d="M82.94486028290997,-89.73699460098426L153.68203329591648,-24.578083381955746L153.7050731941359,-32.32218339157866z" style="fill:rgb(168,222,202)"/><path d="M0.44437264076837624,-24.270410214359277L14.434681322695555,-32.84907182072717L-142.8848276052158,-77.26238508726314z" style="fill:rgb(97,231,194)"/><path d="M-117.25083741860412,132.18815854497066L-162.3034312959083,29.919447879507956L-167.26452277224914,27.784415578244367z" style="fill:rgb(27,66,177)"/><path d="M69.67167042374415,-75.07499363085184L151.9070095485093,-16.940833019613965L77.00038387763043,-82.65049015363938z" style="fill:rgb(159,219,209)"/><path d="M-147.83591542696684,31.429801982274736L-151.7431571756055,-50.45435648971883L-155.81338768906417,31.149177771311138z" style="fill:rgb(56,205,198)"/><path d="M152.70997725325174,82.57515697752947L153.68203329591648,-24.578083381955746L151.9070095485093,-16.940833019613965z" style="fill:rgb(250,118,159)"/><path d="M135.8839569348772,4.330946480736999L137.80111331647146,104.85476604673003L144.42028630863967,97.85766135145109z" style="fill:rgb(227,89,196)"/><path d="M0.44437264076837624,-24.270410214359277L-147.12304003567957,-71.00780295716491L-14.157642398648644,-15.924896706960894z" style="fill:rgb(96,230,195)"/><path d="M53.21607322425685,133.2136117557749L-77.25153412087441,137.91003151766634L-87.83119997265817,138.8320057344209z" style="fill:rgb(132,2,153)"/><path d="M-147.83591542696684,31.429801982274736L-105.28175578056567,137.50100481159572L-97.20792215334274,138.68700027289444z" style="fill:rgb(49,63,205)"/><path d="M77.00038387763043,-82.65049015363938L151.9070095485093,-16.940833019613965L153.68203329591648,-24.578083381955746z" style="fill:rgb(162,220,207)"/><path d="M-29.17281135904607,-7.936368888552265L-14.157642398648644,-15.924896706960894L-147.12304003567957,-71.00780295716491z" style="fill:rgb(94,229,196)"/><path d="M53.21607322425685,133.2136117557749L-65.59434182210295,135.91352487388374L-77.25153412087441,137.91003151766634z" style="fill:rgb(132,9,174)"/><path d="M53.21607322425685,133.2136117557749L68.3903427378786,131.86240505518387L-53.00865637373325,132.85422753702477z" style="fill:rgb(135,24,202)"/><path d="M-150.3977411242107,-43.18707568611073L-147.83591542696684,31.429801982274736L-138.4397569615942,30.731696709245945z" style="fill:rgb(63,209,200)"/><path d="M149.39767308857697,90.3960436533588L151.9070095485093,-16.940833019613965L148.3482470931178,-9.509403726752145z" style="fill:rgb(245,108,172)"/><path d="M127.05416378113487,10.538708690190141L129.5906688146407,111.28466092371187L137.80111331647146,104.85476604673003z" style="fill:rgb(215,81,207)"/><path d="M69.67167042374415,-75.07499363085184L60.99686747848722,-67.08461463847343L148.3482470931178,-9.509403726752145z" style="fill:rgb(155,216,213)"/><path d="M-162.3034312959083,29.919447879507956L-105.28175578056567,137.50100481159572L-155.81338768906417,31.149177771311138z" style="fill:rgb(37,64,192)"/><path d="M-87.83119997265817,138.8320057344209L-147.83591542696684,31.429801982274736L-97.20792215334274,138.68700027289444z" style="fill:rgb(62,64,217)"/><path d="M53.21607322425685,133.2136117557749L-53.00865637373325,132.85422753702477L-65.59434182210295,135.91352487388374z" style="fill:rgb(134,21,198)"/><path d="M-29.17281135904607,-7.936368888552265L-150.0536769983067,-64.42160962294128L-44.389151681204126,-0.42551482660723816z" style="fill:rgb(92,228,197)"/><path d="M68.3903427378786,131.86240505518387L-39.66437944674104,128.76357672839137L-53.00865637373325,132.85422753702477z" style="fill:rgb(137,41,221)"/><path d="M-150.3977411242107,-43.18707568611073L-138.4397569615942,30.731696709245945L-127.72298786689213,29.0413565025869z" style="fill:rgb(69,213,201)"/><path d="M127.05416378113487,10.538708690190141L119.8681949012358,117.05057009457498L129.5906688146407,111.28466092371187z" style="fill:rgb(202,73,215)"/><path d="M-115.81117230560268,26.362842338481666L-151.7431571756055,-50.45435648971883L-127.72298786689213,29.0413565025869z" style="fill:rgb(74,216,201)"/><path d="M149.39767308857697,90.3960436533588L148.3482470931178,-9.509403726752145L142.99959832604833,-2.3849294429954213z" style="fill:rgb(237,99,185)"/><path d="M-147.83591542696684,31.429801982274736L-155.81338768906417,31.149177771311138L-105.28175578056567,137.50100481159572z" style="fill:rgb(49,63,205)"/><path d="M69.67167042374415,-75.07499363085184L148.3482470931178,-9.509403726752145L151.9070095485093,-16.940833019613965z" style="fill:rgb(157,218,211)"/><path d="M-115.81117230560268,26.362842338481666L-102.85648947203832,22.718528444168918L-151.7431571756055,-50.45435648971883z" style="fill:rgb(78,219,201)"/><path d="M-44.389151681204126,-0.42551482660723816L-151.612612943416,-57.55237576779379L-59.586176764680296,6.493303737118021z" style="fill:rgb(90,226,198)"/><path d="M-74.541309279206,12.71559660830493L-59.586176764680296,6.493303737118021L-151.612612943416,-57.55237576779379z" style="fill:rgb(88,225,199)"/><path d="M-89.03478757691852,18.1495173490034L-151.7431571756055,-50.45435648971883L-102.85648947203832,22.718528444168918z" style="fill:rgb(82,221,200)"/><path d="M-87.83119997265817,138.8320057344209L-77.25153412087441,137.91003151766634L-127.72298786689213,29.0413565025869z" style="fill:rgb(77,66,227)"/><path d="M60.99686747848722,-67.08461463847343L51.0372673341962,-58.76555260745021L142.99959832604833,-2.3849294429954213z" style="fill:rgb(151,214,217)"/><path d="M104.62203176282988,21.056140381466044L108.74062592589448,122.0632302803202L119.8681949012358,117.05057009457498z" style="fill:rgb(187,67,222)"/><path d="M-89.03478757691852,18.1495173490034L-74.541309279206,12.71559660830493L-151.7431571756055,-50.45435648971883z" style="fill:rgb(85,223,200)"/><path d="M104.62203176282988,21.056140381466044L96.34218691602244,126.24416278595196L108.74062592589448,122.0632302803202z" style="fill:rgb(173,62,227)"/><path d="M-65.59434182210295,135.91352487388374L-127.72298786689213,29.0413565025869L-77.25153412087441,137.91003151766634z" style="fill:rgb(92,69,235)"/><path d="M135.8839569348772,4.330946480736999L144.42028630863967,97.85766135145109L142.99959832604833,-2.3849294429954213z" style="fill:rgb(227,89,196)"/><path d="M82.83177680868445,129.52752508215082L96.34218691602244,126.24416278595196L91.28125127478589,25.199617928799338z" style="fill:rgb(158,58,230)"/><path d="M60.99686747848722,-67.08461463847343L142.99959832604833,-2.3849294429954213L148.3482470931178,-9.509403726752145z" style="fill:rgb(153,215,215)"/><path d="M-87.83119997265817,138.8320057344209L-138.4397569615942,30.731696709245945L-147.83591542696684,31.429801982274736z" style="fill:rgb(62,64,217)"/><path d="M82.83177680868445,129.52752508215082L61.21496264557257,30.926387794625796L68.3903427378786,131.86240505518387z" style="fill:rgb(144,55,231)"/><path d="M135.8839569348772,4.330946480736999L51.0372673341962,-58.76555260745021L39.87882327998691,-50.2142015113789z" style="fill:rgb(147,211,221)"/><path d="M-65.59434182210295,135.91352487388374L-53.00865637373325,132.85422753702477L-102.85648947203832,22.718528444168918z" style="fill:rgb(107,72,240)"/><path d="M127.05416378113487,10.538708690190141L137.80111331647146,104.85476604673003L135.8839569348772,4.330946480736999z" style="fill:rgb(215,81,207)"/><path d="M-87.83119997265817,138.8320057344209L-127.72298786689213,29.0413565025869L-138.4397569615942,30.731696709245945z" style="fill:rgb(77,66,227)"/><path d="M68.3903427378786,131.86240505518387L61.21496264557257,30.926387794625796L-39.66437944674104,128.76357672839137z" style="fill:rgb(139,55,231)"/><path d="M135.8839569348772,4.330946480736999L142.99959832604833,-2.3849294429954213L51.0372673341962,-58.76555260745021z" style="fill:rgb(149,212,219)"/><path d="M44.90489826287917,32.42063041642662L-53.00865637373325,132.85422753702477L-39.66437944674104,128.76357672839137z" style="fill:rgb(126,63,237)"/><path d="M27.63270555949574,-41.53723022517926L127.05416378113487,10.538708690190141L39.87882327998691,-50.2142015113789z" style="fill:rgb(144,208,224)"/><path d="M127.05416378113487,10.538708690190141L116.5949996956188,16.1430493998068L119.8681949012358,117.05057009457498z" style="fill:rgb(202,73,215)"/><path d="M-65.59434182210295,135.91352487388374L-115.81117230560268,26.362842338481666L-127.72298786689213,29.0413565025869z" style="fill:rgb(92,69,235)"/><path d="M104.62203176282988,21.056140381466044L119.8681949012358,117.05057009457498L116.5949996956188,16.1430493998068z" style="fill:rgb(187,67,222)"/><path d="M-65.59434182210295,135.91352487388374L-102.85648947203832,22.718528444168918L-115.81117230560268,26.362842338481666z" style="fill:rgb(107,72,240)"/><path d="M127.05416378113487,10.538708690190141L135.8839569348772,4.330946480736999L39.87882327998691,-50.2142015113789z" style="fill:rgb(146,209,223)"/><path d="M27.63270555949574,-41.53723022517926L14.434681322695555,-32.84907182072717L116.5949996956188,16.1430493998068z" style="fill:rgb(141,204,228)"/><path d="M104.62203176282988,21.056140381466044L91.28125127478589,25.199617928799338L96.34218691602244,126.24416278595196z" style="fill:rgb(173,62,227)"/><path d="M28.047818600484742,32.96985189762761L-102.85648947203832,22.718528444168918L-53.00865637373325,132.85422753702477z" style="fill:rgb(111,74,242)"/><path d="M82.83177680868445,129.52752508215082L91.28125127478589,25.199617928799338L76.74633532421304,28.50721667920089z" style="fill:rgb(158,58,230)"/><path d="M82.83177680868445,129.52752508215082L76.74633532421304,28.50721667920089L61.21496264557257,30.926387794625796z" style="fill:rgb(144,55,231)"/><path d="M27.63270555949574,-41.53723022517926L116.5949996956188,16.1430493998068L127.05416378113487,10.538708690190141z" style="fill:rgb(142,205,226)"/><path d="M0.44437264076837624,-24.270410214359277L104.62203176282988,21.056140381466044L14.434681322695555,-32.84907182072717z" style="fill:rgb(137,199,231)"/><path d="M44.90489826287917,32.42063041642662L28.047818600484742,32.96985189762761L-53.00865637373325,132.85422753702477z" style="fill:rgb(117,70,241)"/><path d="M44.90489826287917,32.42063041642662L-39.66437944674104,128.76357672839137L61.21496264557257,30.926387794625796z" style="fill:rgb(130,61,236)"/><path d="M104.62203176282988,21.056140381466044L116.5949996956188,16.1430493998068L14.434681322695555,-32.84907182072717z" style="fill:rgb(139,201,230)"/><path d="M0.44437264076837624,-24.270410214359277L-14.157642398648644,-15.924896706960894L91.28125127478589,25.199617928799338z" style="fill:rgb(134,194,235)"/><path d="M76.74633532421304,28.50721667920089L-14.157642398648644,-15.924896706960894L-29.17281135904607,-7.936368888552265z" style="fill:rgb(130,187,239)"/><path d="M0.44437264076837624,-24.270410214359277L91.28125127478589,25.199617928799338L104.62203176282988,21.056140381466044z" style="fill:rgb(135,195,234)"/><path d="M76.74633532421304,28.50721667920089L-29.17281135904607,-7.936368888552265L-44.389151681204126,-0.42551482660723816z" style="fill:rgb(127,179,244)"/><path d="M-89.03478757691852,18.1495173490034L-102.85648947203832,22.718528444168918L28.047818600484742,32.96985189762761z" style="fill:rgb(112,99,250)"/><path d="M76.74633532421304,28.50721667920089L91.28125127478589,25.199617928799338L-14.157642398648644,-15.924896706960894z" style="fill:rgb(131,188,239)"/><path d="M-44.389151681204126,-0.42551482660723816L-59.586176764680296,6.493303737118021L61.21496264557257,30.926387794625796z" style="fill:rgb(123,167,248)"/><path d="M-89.03478757691852,18.1495173490034L44.90489826287917,32.42063041642662L-74.541309279206,12.71559660830493z" style="fill:rgb(115,129,254)"/><path d="M-74.541309279206,12.71559660830493L44.90489826287917,32.42063041642662L-59.586176764680296,6.493303737118021z" style="fill:rgb(119,152,252)"/><path d="M-89.03478757691852,18.1495173490034L28.047818600484742,32.96985189762761L44.90489826287917,32.42063041642662z" style="fill:rgb(114,115,253)"/><path d="M76.74633532421304,28.50721667920089L-44.389151681204126,-0.42551482660723816L61.21496264557257,30.926387794625796z" style="fill:rgb(126,177,244)"/><path d="M-59.586176764680296,6.493303737118021L44.90489826287917,32.42063041642662L61.21496264557257,30.926387794625796z" style="fill:rgb(121,158,251)"/></svg>