solid JSxCAD
facet normal -0.14520398944865118 0.2314350368077544 -0.9619530264966109
outer loop
vertex 9.53515 6.88967 -3.47051
vertex 10.40321 6.12106 -3.78646
vertex -4.40394 12.56926 0
endloop
endfacet
facet normal 0 0.4395304498760082 -0.898227690305634
outer loop
vertex 0.50649 13.98203 0
vertex 9.53515 6.88967 -3.47051
vertex -0.50649 13.98203 0
endloop
endfacet
facet normal -0.059257602599710094 0.41624882779648215 0.9073177226816357
outer loop
vertex -6.983 6.12106 13.18338
vertex -0.50649 13.98203 10
vertex -1.51428 13.83856 10
endloop
endfacet
facet normal 0.5489400412238982 -0.8358617296784827 0
outer loop
vertex 11.98946 -7.58758 6.27797
vertex 4.40394 -12.56926 10
vertex 4.40394 -12.56926 0
endloop
endfacet
facet normal 0.6451341704834915 -0.7270945110633822 -0.23480944200793644
outer loop
vertex 10.40321 -6.12106 -3.78646
vertex 13.82341 -6.12106 5.61047
vertex 5.28964 -11.88102 0
endloop
endfacet
facet normal 0.5749824302538448 -0.7399481844644752 -0.3491015456956751
outer loop
vertex 10.40321 -6.12106 -3.78646
vertex 5.28964 -11.88102 0
vertex 4.40394 -12.56926 0
endloop
endfacet
facet normal -0.1699882791519212 0.17444906568145835 -0.969882213690835
outer loop
vertex -5.28964 11.88102 0
vertex 10.40321 6.12106 -3.78646
vertex -6.12106 11.07086 0
endloop
endfacet
facet normal -0.6135862715655797 0.7896276890701406 0
outer loop
vertex -5.28964 11.88102 0
vertex -5.28964 11.88102 10
vertex -4.40394 12.56926 10
endloop
endfacet
facet normal -0.6135862715655797 0.7896276890701406 0
outer loop
vertex -5.28964 11.88102 0
vertex -4.40394 12.56926 10
vertex -4.40394 12.56926 0
endloop
endfacet
facet normal -0.158328149646014 0.20375340308827516 -0.966134953181809
outer loop
vertex -5.28964 11.88102 0
vertex -4.40394 12.56926 0
vertex 10.40321 6.12106 -3.78646
endloop
endfacet
facet normal -0.836190938676722 0.5123051722075633 0.1957756997288515
outer loop
vertex -12.33678 3.47305 4.49022
vertex -7.58758 9.11921 10
vertex -11.81124 4.40394 4.29894
endloop
endfacet
facet normal -0.8472922726825377 0.4684681204483547 0.25026670728653866
outer loop
vertex -8.20763 7.99776 10
vertex -7.58758 9.11921 10
vertex -12.33678 3.47305 4.49022
endloop
endfacet
facet normal 0.2925328998900837 0.6659731442745582 -0.6862246524185478
outer loop
vertex 3.47305 13.12853 0
vertex 9.53515 6.88967 -3.47051
vertex 2.50653 13.55308 0
endloop
endfacet
facet normal 0.07283792084146945 0.511642352023588 -0.8561055664480068
outer loop
vertex 1.51428 13.83856 0
vertex 9.53515 6.88967 -3.47051
vertex 0.50649 13.98203 0
endloop
endfacet
facet normal 0.16979358182088755 0.5901558132330665 -0.7892314335349622
outer loop
vertex 1.51428 13.83856 0
vertex 2.50653 13.55308 0
vertex 9.53515 6.88967 -3.47051
endloop
endfacet
facet normal -0.21586024115651548 0.4914220710931465 0.8437468247823949
outer loop
vertex -2.50653 13.55308 10
vertex -3.47305 13.12853 10
vertex -6.983 6.12106 13.18338
endloop
endfacet
facet normal -0.13121319025951625 0.45606097812458013 0.8802224053805784
outer loop
vertex -2.50653 13.55308 10
vertex -6.983 6.12106 13.18338
vertex -1.51428 13.83856 10
endloop
endfacet
facet normal -0.7947696428040903 0.6016086194666596 0.08005175738532531
outer loop
vertex -6.88967 10.1471 10
vertex -11.16451 5.28964 4.06355
vertex -11.81124 4.40394 4.29894
endloop
endfacet
facet normal -0.8183678225467352 0.5556500083020485 0.14672142070620972
outer loop
vertex -6.88967 10.1471 10
vertex -11.81124 4.40394 4.29894
vertex -7.58758 9.11921 10
endloop
endfacet
facet normal 0.8054995368942914 0.5149924269232209 -0.2931779259678551
outer loop
vertex 15.75698 3.47305 4.9067
vertex 12.33678 3.47305 -4.49022
vertex 11.81124 4.40394 -4.29894
endloop
endfacet
facet normal 0.8055028508811769 0.5149860688032686 -0.29317998935952544
outer loop
vertex 15.75698 3.47305 4.9067
vertex 11.81124 4.40394 -4.29894
vertex 15.23145 4.40394 5.09798
endloop
endfacet
facet normal 0.7420039958159892 0.6135909116271286 -0.27006714602427023
outer loop
vertex 11.16451 5.28964 -4.06355
vertex 14.58471 5.28964 5.33338
vertex 15.23145 4.40394 5.09798
endloop
endfacet
facet normal 0.7420088521407211 0.6135837868748893 -0.27006999061184056
outer loop
vertex 11.16451 5.28964 -4.06355
vertex 15.23145 4.40394 5.09798
vertex 11.81124 4.40394 -4.29894
endloop
endfacet
facet normal -0.17301581716680997 0.16517424646126194 -0.9709701310112765
outer loop
vertex 11.16451 5.28964 -4.06355
vertex -6.12106 11.07086 0
vertex 10.40321 6.12106 -3.78646
endloop
endfacet
facet normal 0.5742188996587029 -0.8174559369531904 -0.04514915740886196
outer loop
vertex 12.95536 -6.88967 5.92641
vertex 11.98946 -7.58758 6.27797
vertex 4.40394 -12.56926 0
endloop
endfacet
facet normal 0.6085728481934437 -0.7831758858028208 -0.1275720202030472
outer loop
vertex 12.95536 -6.88967 5.92641
vertex 4.40394 -12.56926 0
vertex 5.28964 -11.88102 0
endloop
endfacet
facet normal 0.6217116750992681 -0.7671272618737279 -0.15808338665204227
outer loop
vertex 12.95536 -6.88967 5.92641
vertex 5.28964 -11.88102 0
vertex 13.82341 -6.12106 5.61047
endloop
endfacet
facet normal 0.13860512794820212 -0.23070453905216082 0.9631012585222763
outer loop
vertex 3.47305 -13.12853 10
vertex 4.40394 -12.56926 10
vertex -6.983 -6.12106 13.18338
endloop
endfacet
facet normal 0.11546607438193662 -0.26286720106378375 0.9578979174587016
outer loop
vertex 3.47305 -13.12853 10
vertex -6.983 -6.12106 13.18338
vertex 2.50653 -13.55308 10
endloop
endfacet
facet normal -0.059257602599709816 -0.4162488277964821 0.9073177226816357
outer loop
vertex -1.51428 -13.83856 10
vertex -0.50649 -13.98203 10
vertex -6.983 -6.12106 13.18338
endloop
endfacet
facet normal -0.13121319025951625 -0.45606097812458013 0.8802224053805784
outer loop
vertex -1.51428 -13.83856 10
vertex -6.983 -6.12106 13.18338
vertex -2.50653 -13.55308 10
endloop
endfacet
facet normal -0.1409399804165295 -0.9900181422177012 0
outer loop
vertex -1.51428 -13.83856 10
vertex -1.51428 -13.83856 0
vertex -0.50649 -13.98203 0
endloop
endfacet
facet normal -0.1409399804165295 -0.9900181422177012 0
outer loop
vertex -1.51428 -13.83856 10
vertex -0.50649 -13.98203 0
vertex -0.50649 -13.98203 10
endloop
endfacet
facet normal -0.8114321588220809 -0.5509408769065941 -0.19504358944279743
outer loop
vertex -7.58758 -9.11921 0
vertex -6.88967 -10.1471 0
vertex -11.16451 -5.28964 4.06355
endloop
endfacet
facet normal 0.5149940014367363 -0.8571937811744663 0
outer loop
vertex 3.47305 -13.12853 0
vertex 4.40394 -12.56926 0
vertex 4.40394 -12.56926 10
endloop
endfacet
facet normal 0.5149940014367363 -0.8571937811744663 0
outer loop
vertex 3.47305 -13.12853 0
vertex 4.40394 -12.56926 10
vertex 3.47305 -13.12853 10
endloop
endfacet
facet normal 0.4021680723632683 -0.9155658586751764 0
outer loop
vertex 3.47305 -13.12853 0
vertex 3.47305 -13.12853 10
vertex 2.50653 -13.55308 10
endloop
endfacet
facet normal 0.4021680723632683 -0.9155658586751764 0
outer loop
vertex 3.47305 -13.12853 0
vertex 2.50653 -13.55308 10
vertex 2.50653 -13.55308 0
endloop
endfacet
facet normal -0.528265021894461 -0.5421276099825869 0.6534781718905481
outer loop
vertex -6.12106 -11.07086 10
vertex -5.28964 -11.88102 10
vertex -8.39104 -4.40394 13.69587
endloop
endfacet
facet normal -0.1860747437348448 0.12319490387361622 -0.9747816193402408
outer loop
vertex -7.58758 9.11921 0
vertex 11.16451 5.28964 -4.06355
vertex 11.81124 4.40394 -4.29894
endloop
endfacet
facet normal -0.815401536749327 0.5398580760803225 -0.20898227570224356
outer loop
vertex -7.58758 9.11921 0
vertex -11.81124 4.40394 4.29894
vertex -11.16451 5.28964 4.06355
endloop
endfacet
facet normal 0.8603487800561656 0.40217213486509557 -0.313141422673397
outer loop
vertex 12.73573 2.50653 -4.63543
vertex 12.33678 3.47305 -4.49022
vertex 15.75698 3.47305 4.9067
endloop
endfacet
facet normal 0.8603500081813005 0.40216941900264874 -0.3131415364360152
outer loop
vertex 12.73573 2.50653 -4.63543
vertex 15.75698 3.47305 4.9067
vertex 16.15593 2.50653 4.7615
endloop
endfacet
facet normal -0.053616893240023514 0.3766262552335893 -0.9248123553608111
outer loop
vertex -1.51428 13.83856 0
vertex -0.50649 13.98203 0
vertex 9.53515 6.88967 -3.47051
endloop
endfacet
facet normal -0.092862115694415 0.32276318585464264 -0.9419132408697302
outer loop
vertex -1.51428 13.83856 0
vertex 9.53515 6.88967 -3.47051
vertex -2.50653 13.55308 0
endloop
endfacet
facet normal -0.2764936039986194 0.9610157579081909 0
outer loop
vertex -1.51428 13.83856 0
vertex -2.50653 13.55308 0
vertex -2.50653 13.55308 10
endloop
endfacet
facet normal -0.2764936039986194 0.9610157579081909 0
outer loop
vertex -1.51428 13.83856 0
vertex -2.50653 13.55308 10
vertex -1.51428 13.83856 10
endloop
endfacet
facet normal -0.1409399804165295 0.9900181422177012 0
outer loop
vertex -1.51428 13.83856 0
vertex -1.51428 13.83856 10
vertex -0.50649 13.98203 10
endloop
endfacet
facet normal -0.1409399804165295 0.9900181422177012 0
outer loop
vertex -1.51428 13.83856 0
vertex -0.50649 13.98203 10
vertex -0.50649 13.98203 0
endloop
endfacet
facet normal -0.5149940014367363 0.8571937811744663 0
outer loop
vertex -3.47305 13.12853 0
vertex -4.40394 12.56926 0
vertex -4.40394 12.56926 10
endloop
endfacet
facet normal -0.5149940014367363 0.8571937811744663 0
outer loop
vertex -3.47305 13.12853 0
vertex -4.40394 12.56926 10
vertex -3.47305 13.12853 10
endloop
endfacet
facet normal -0.4021680723632683 0.9155658586751764 0
outer loop
vertex -3.47305 13.12853 0
vertex -3.47305 13.12853 10
vertex -2.50653 13.55308 10
endloop
endfacet
facet normal -0.4021680723632683 0.9155658586751764 0
outer loop
vertex -3.47305 13.12853 0
vertex -2.50653 13.55308 10
vertex -2.50653 13.55308 0
endloop
endfacet
facet normal -0.12157185171743554 0.27676746230581983 -0.9532156401773895
outer loop
vertex -3.47305 13.12853 0
vertex -2.50653 13.55308 0
vertex 9.53515 6.88967 -3.47051
endloop
endfacet
facet normal -0.14256152267479807 0.23728985256270294 -0.9609212965292286
outer loop
vertex -3.47305 13.12853 0
vertex 9.53515 6.88967 -3.47051
vertex -4.40394 12.56926 0
endloop
endfacet
facet normal -0.8360053576794777 0 -0.5487212789123532
outer loop
vertex -10 0 0
vertex -13.13881 -0.50649 4.78214
vertex -13.13881 0.50649 4.78214
endloop
endfacet
facet normal -0.8392934993896052 0.17629887793343296 -0.5143006197952353
outer loop
vertex -13.00399 1.51428 4.73307
vertex -12.73573 2.50653 4.63543
vertex -9.54139 4.19108 0
endloop
endfacet
facet normal 0.45564267217047644 0.7262106792757422 -0.5147890874942989
outer loop
vertex 4.40394 12.56926 0
vertex 10.40321 6.12106 -3.78646
vertex 9.53515 6.88967 -3.47051
endloop
endfacet
facet normal 0.43348999805450034 0.7215325411499885 -0.5398862969629338
outer loop
vertex 4.40394 12.56926 0
vertex 9.53515 6.88967 -3.47051
vertex 3.47305 13.12853 0
endloop
endfacet
facet normal 0.5742188996587029 0.8174559369531904 -0.045149157408861454
outer loop
vertex 4.40394 12.56926 0
vertex 11.98946 7.58758 6.27797
vertex 12.95536 6.88967 5.92641
endloop
endfacet
facet normal 0.6085728481934441 0.7831758858028204 -0.12757202020304734
outer loop
vertex 4.40394 12.56926 0
vertex 12.95536 6.88967 5.92641
vertex 5.28964 11.88102 0
endloop
endfacet
facet normal 0.5749824302538452 0.7399481844644751 -0.34910154569567425
outer loop
vertex 4.40394 12.56926 0
vertex 5.28964 11.88102 0
vertex 10.40321 6.12106 -3.78646
endloop
endfacet
facet normal 0 0.3753506774759398 0.9268828776702872
outer loop
vertex 0.50649 13.98203 10
vertex -0.50649 13.98203 10
vertex -6.983 6.12106 13.18338
endloop
endfacet
facet normal 0.1409399804165295 0.9900181422177012 0
outer loop
vertex 0.50649 13.98203 10
vertex 1.51428 13.83856 10
vertex 1.51428 13.83856 0
endloop
endfacet
facet normal 0.1409399804165295 0.9900181422177012 0
outer loop
vertex 0.50649 13.98203 10
vertex 1.51428 13.83856 0
vertex 0.50649 13.98203 0
endloop
endfacet
facet normal 0 1 0
outer loop
vertex 0.50649 13.98203 10
vertex 0.50649 13.98203 0
vertex -0.50649 13.98203 0
endloop
endfacet
facet normal 0 1 0
outer loop
vertex 0.50649 13.98203 10
vertex -0.50649 13.98203 0
vertex -0.50649 13.98203 10
endloop
endfacet
facet normal 0.4021680723632683 0.9155658586751764 0
outer loop
vertex 2.50653 13.55308 10
vertex 3.47305 13.12853 10
vertex 3.47305 13.12853 0
endloop
endfacet
facet normal 0.4021680723632683 0.9155658586751764 0
outer loop
vertex 2.50653 13.55308 10
vertex 3.47305 13.12853 0
vertex 2.50653 13.55308 0
endloop
endfacet
facet normal 0.2764936039986194 0.9610157579081909 0
outer loop
vertex 2.50653 13.55308 10
vertex 2.50653 13.55308 0
vertex 1.51428 13.83856 0
endloop
endfacet
facet normal 0.2764936039986194 0.9610157579081909 0
outer loop
vertex 2.50653 13.55308 10
vertex 1.51428 13.83856 0
vertex 1.51428 13.83856 10
endloop
endfacet
facet normal 0.11546607438193662 0.26286720106378375 0.9578979174587016
outer loop
vertex 2.50653 13.55308 10
vertex -6.983 6.12106 13.18338
vertex 3.47305 13.12853 10
endloop
endfacet
facet normal 0.6515465899122491 -0.502081931719386 0.5686833697363141
outer loop
vertex 6.88967 -10.1471 10
vertex 12.95536 -6.88967 5.92641
vertex 13.82341 -6.12106 5.61047
endloop
endfacet
facet normal 0.2075086391042146 -0.0075173460648686975 0.9782043008519529
outer loop
vertex 9.94869 -1.41636 10
vertex 10 0 10
vertex -9.71861 -0.50649 14.17906
endloop
endfacet
facet normal -0.8597779217304207 -0.4035525569103794 0.3129333141677531
outer loop
vertex -8.91658 -3.47305 13.88715
vertex -12.33678 -3.47305 4.49022
vertex -8.20763 -7.99776 10
endloop
endfacet
facet normal 0.6456140825453502 0.35696019606959234 0.6751013811577368
outer loop
vertex 7.58758 9.11921 10
vertex 8.20763 7.99776 10
vertex 14.58471 5.28964 5.33338
endloop
endfacet
facet normal -0.7300707124366024 0.4956986165023786 0.4704036951810004
outer loop
vertex -8.91658 3.47305 13.88715
vertex -6.88967 10.1471 10
vertex -7.58758 9.11921 10
endloop
endfacet
facet normal -0.8115326153759524 0.4486965965168842 0.3742808817655942
outer loop
vertex -8.91658 3.47305 13.88715
vertex -7.58758 9.11921 10
vertex -8.20763 7.99776 10
endloop
endfacet
facet normal -0.8597779217304207 0.4035525569103794 0.3129333141677531
outer loop
vertex -8.91658 3.47305 13.88715
vertex -8.20763 7.99776 10
vertex -12.33678 3.47305 4.49022
endloop
endfacet
facet normal 0.6369777036884738 0.14930858679978873 0.7562845700605089
outer loop
vertex 9.54139 4.19108 10
vertex 16.15593 2.50653 4.7615
vertex 15.75698 3.47305 4.9067
endloop
endfacet
facet normal -0.9303124217422883 0.14094218300362518 0.338606111879528
outer loop
vertex -9.71861 0.50649 14.17906
vertex -9.58379 1.51428 14.12999
vertex -13.00399 1.51428 4.73307
endloop
endfacet
facet normal -0.9303124217422883 0.140942183003625 0.338606111879528
outer loop
vertex -9.71861 0.50649 14.17906
vertex -13.00399 1.51428 4.73307
vertex -13.13881 0.50649 4.78214
endloop
endfacet
facet normal -0.9396925942317143 0 0.34202021628270846
outer loop
vertex -9.71861 0.50649 14.17906
vertex -13.13881 0.50649 4.78214
vertex -13.13881 -0.50649 4.78214
endloop
endfacet
facet normal -0.9396925942317143 0 0.34202021628270846
outer loop
vertex -9.71861 0.50649 14.17906
vertex -13.13881 -0.50649 4.78214
vertex -9.71861 -0.50649 14.17906
endloop
endfacet
facet normal 0.2073297114105427 0 0.978271123342819
outer loop
vertex -9.71861 0.50649 14.17906
vertex -9.71861 -0.50649 14.17906
vertex 10 0 10
endloop
endfacet
facet normal 0 -0.3753506774759398 0.9268828776702872
outer loop
vertex 0.50649 -13.98203 10
vertex -6.983 -6.12106 13.18338
vertex -0.50649 -13.98203 10
endloop
endfacet
facet normal 0 -1 0
outer loop
vertex 0.50649 -13.98203 10
vertex -0.50649 -13.98203 10
vertex -0.50649 -13.98203 0
endloop
endfacet
facet normal 0 -1 0
outer loop
vertex 0.50649 -13.98203 10
vertex -0.50649 -13.98203 0
vertex 0.50649 -13.98203 0
endloop
endfacet
facet normal 0.03231563830603127 -0.34855090172574094 0.9367326024149296
outer loop
vertex -6.11495 -6.88967 12.86744
vertex -6.983 -6.12106 13.18338
vertex 0.50649 -13.98203 10
endloop
endfacet
facet normal 0.04779393296602708 -0.33572348019678316 0.9407473012537422
outer loop
vertex -6.11495 -6.88967 12.86744
vertex 0.50649 -13.98203 10
vertex 1.51428 -13.83856 10
endloop
endfacet
facet normal 0.08577210941029183 -0.29812027309220324 0.9506668438621065
outer loop
vertex -6.11495 -6.88967 12.86744
vertex 1.51428 -13.83856 10
vertex 2.50653 -13.55308 10
endloop
endfacet
facet normal 0.11215952237211663 -0.26679248656427557 0.9572053126963461
outer loop
vertex -6.11495 -6.88967 12.86744
vertex 2.50653 -13.55308 10
vertex -6.983 -6.12106 13.18338
endloop
endfacet
facet normal 0.2764936039986194 -0.9610157579081909 0
outer loop
vertex 1.51428 -13.83856 0
vertex 2.50653 -13.55308 0
vertex 2.50653 -13.55308 10
endloop
endfacet
facet normal 0.2764936039986194 -0.9610157579081909 0
outer loop
vertex 1.51428 -13.83856 0
vertex 2.50653 -13.55308 10
vertex 1.51428 -13.83856 10
endloop
endfacet
facet normal 0.1409399804165295 -0.9900181422177012 0
outer loop
vertex 1.51428 -13.83856 0
vertex 1.51428 -13.83856 10
vertex 0.50649 -13.98203 10
endloop
endfacet
facet normal 0.1409399804165295 -0.9900181422177012 0
outer loop
vertex 1.51428 -13.83856 0
vertex 0.50649 -13.98203 10
vertex 0.50649 -13.98203 0
endloop
endfacet
facet normal -0.493353301780961 -0.5412216962854479 0.6809416972779141
outer loop
vertex -7.74431 -5.28964 13.46047
vertex -8.39104 -4.40394 13.69587
vertex -5.28964 -11.88102 10
endloop
endfacet
facet normal -0.41920839520626435 -0.5394816860894285 0.7302217688912704
outer loop
vertex -7.74431 -5.28964 13.46047
vertex -5.28964 -11.88102 10
vertex -4.40394 -12.56926 10
endloop
endfacet
facet normal -0.1906614768009467 -0.10541678067718284 -0.9759792536810098
outer loop
vertex 11.81124 -4.40394 -4.29894
vertex -7.58758 -9.11921 0
vertex -8.20763 -7.99776 0
endloop
endfacet
facet normal -0.19333311994239147 -0.09157644148845158 -0.9768500704292614
outer loop
vertex 11.81124 -4.40394 -4.29894
vertex -8.20763 -7.99776 0
vertex 12.33678 -3.47305 -4.49022
endloop
endfacet
facet normal -0.158328149646014 -0.20375340308827516 -0.966134953181809
outer loop
vertex -5.28964 -11.88102 0
vertex 10.40321 -6.12106 -3.78646
vertex -4.40394 -12.56926 0
endloop
endfacet
facet normal -0.6135862715655797 -0.7896276890701406 0
outer loop
vertex -5.28964 -11.88102 0
vertex -4.40394 -12.56926 0
vertex -4.40394 -12.56926 10
endloop
endfacet
facet normal -0.6135862715655797 -0.7896276890701406 0
outer loop
vertex -5.28964 -11.88102 0
vertex -4.40394 -12.56926 10
vertex -5.28964 -11.88102 10
endloop
endfacet
facet normal -0.2764936039986194 -0.9610157579081909 0
outer loop
vertex -2.50653 -13.55308 0
vertex -1.51428 -13.83856 0
vertex -1.51428 -13.83856 10
endloop
endfacet
facet normal -0.2764936039986194 -0.9610157579081909 0
outer loop
vertex -2.50653 -13.55308 0
vertex -1.51428 -13.83856 10
vertex -2.50653 -13.55308 10
endloop
endfacet
facet normal -0.8603488871572131 -0.40217213486404496 0.3131411284169512
outer loop
vertex -12.73573 -2.50653 4.63543
vertex -12.33678 -3.47305 4.49022
vertex -8.91658 -3.47305 13.88715
endloop
endfacet
facet normal -0.8603499010811669 -0.40216941900114683 0.31314183069322793
outer loop
vertex -12.73573 -2.50653 4.63543
vertex -8.91658 -3.47305 13.88715
vertex -9.31553 -2.50653 14.03235
endloop
endfacet
facet normal -0.8154015367493274 -0.5398580760803221 -0.20898227570224356
outer loop
vertex -11.81124 -4.40394 4.29894
vertex -7.58758 -9.11921 0
vertex -11.16451 -5.28964 4.06355
endloop
endfacet
facet normal -0.8391888724774431 -0.3975056202590835 -0.37114864700343314
outer loop
vertex -11.81124 -4.40394 4.29894
vertex -12.33678 -3.47305 4.49022
vertex -8.20763 -7.99776 0
endloop
endfacet
facet normal -0.8312844953738037 -0.45961741616347296 -0.312598654044341
outer loop
vertex -11.81124 -4.40394 4.29894
vertex -8.20763 -7.99776 0
vertex -7.58758 -9.11921 0
endloop
endfacet
facet normal -0.8416014326841095 -0.27779943900501713 -0.46317869142756574
outer loop
vertex -9.18958 -5.52098 0
vertex -12.33678 -3.47305 4.49022
vertex -12.73573 -2.50653 4.63543
endloop
endfacet
facet normal -0.8387076573758048 -0.2218706225591265 -0.4973357943124697
outer loop
vertex -9.18958 -5.52098 0
vertex -12.73573 -2.50653 4.63543
vertex -9.54139 -4.19108 0
endloop
endfacet
facet normal -0.18546632718278394 0.1259267085039614 -0.9745484624002476
outer loop
vertex -6.88967 10.1471 0
vertex 11.16451 5.28964 -4.06355
vertex -7.58758 9.11921 0
endloop
endfacet
facet normal -0.8114321588220809 0.5509408769065941 -0.1950435894427975
outer loop
vertex -6.88967 10.1471 0
vertex -7.58758 9.11921 0
vertex -11.16451 5.28964 4.06355
endloop
endfacet
facet normal -0.7679610725689081 0.6389782627383611 -0.04407460455498071
outer loop
vertex -6.88967 10.1471 0
vertex -11.16451 5.28964 4.06355
vertex -6.12106 11.07086 0
endloop
endfacet
facet normal -0.17885859199866153 0.148818418632644 -0.9725547194600084
outer loop
vertex -6.88967 10.1471 0
vertex -6.12106 11.07086 0
vertex 11.16451 5.28964 -4.06355
endloop
endfacet
facet normal -0.8391888724774432 0.3975056202590834 -0.3711486470034329
outer loop
vertex -8.20763 7.99776 0
vertex -12.33678 3.47305 4.49022
vertex -11.81124 4.40394 4.29894
endloop
endfacet
facet normal -0.8312844953738036 0.45961741616347296 -0.3125986540443411
outer loop
vertex -8.20763 7.99776 0
vertex -11.81124 4.40394 4.29894
vertex -7.58758 9.11921 0
endloop
endfacet
facet normal -0.19066147680094664 0.10541678067718303 -0.9759792536810099
outer loop
vertex -8.20763 7.99776 0
vertex -7.58758 9.11921 0
vertex 11.81124 4.40394 -4.29894
endloop
endfacet
facet normal -0.19333311994239152 0.09157644148845155 -0.9768500704292616
outer loop
vertex -8.20763 7.99776 0
vertex 11.81124 4.40394 -4.29894
vertex 12.33678 3.47305 -4.49022
endloop
endfacet
facet normal -0.200482685557708 0.04211411587261614 -0.9787916499622569
outer loop
vertex 13.00399 1.51428 -4.73307
vertex -9.54139 4.19108 0
vertex 12.73573 2.50653 -4.63543
endloop
endfacet
facet normal 0.9030602795182477 0.27649073204110275 -0.32868679111244975
outer loop
vertex 13.00399 1.51428 -4.73307
vertex 12.73573 2.50653 -4.63543
vertex 16.15593 2.50653 4.7615
endloop
endfacet
facet normal 0.9030602795182481 0.2764907320411016 -0.3286867911124497
outer loop
vertex 13.00399 1.51428 -4.73307
vertex 16.15593 2.50653 4.7615
vertex 16.42419 1.51428 4.66386
endloop
endfacet
facet normal 0.930312537552315 0.1409421830037666 -0.3386057936939434
outer loop
vertex 13.00399 1.51428 -4.73307
vertex 16.42419 1.51428 4.66386
vertex 16.55901 0.50649 4.61479
endloop
endfacet
facet normal 0.9303125375523151 0.14094218300376526 -0.33860579369394356
outer loop
vertex 13.00399 1.51428 -4.73307
vertex 16.55901 0.50649 4.61479
vertex 13.13881 0.50649 -4.78214
endloop
endfacet
facet normal -0.20108342750552932 -0.037189229425252254 -0.9788679259212575
outer loop
vertex -9.7953 -2.81818 0
vertex 13.00399 -1.51428 -4.73307
vertex -9.54139 -4.19108 0
endloop
endfacet
facet normal -0.2023945537406951 0 -0.9793040613701676
outer loop
vertex 13.13881 -0.50649 -4.78214
vertex -10 0 0
vertex 13.13881 0.50649 -4.78214
endloop
endfacet
facet normal -0.834152379501954 0.030218559259119128 -0.5507055896280073
outer loop
vertex -9.94869 1.41636 0
vertex -10 0 0
vertex -13.13881 0.50649 4.78214
endloop
endfacet
facet normal -0.8362748645059361 0.0855040596465096 -0.5416026281135868
outer loop
vertex -9.94869 1.41636 0
vertex -13.13881 0.50649 4.78214
vertex -13.00399 1.51428 4.73307
endloop
endfacet
facet normal -0.20200210681412994 0.0206529291517248 -0.9791673020276498
outer loop
vertex -9.94869 1.41636 0
vertex 13.00399 1.51428 -4.73307
vertex 13.13881 0.50649 -4.78214
endloop
endfacet
facet normal -0.20254313483373135 0.0073374624024393 -0.9792458527750922
outer loop
vertex -9.94869 1.41636 0
vertex 13.13881 0.50649 -4.78214
vertex -10 0 0
endloop
endfacet
facet normal 0.5489400412238982 0.8358617296784827 0
outer loop
vertex 4.40394 12.56926 10
vertex 11.98946 7.58758 6.27797
vertex 4.40394 12.56926 0
endloop
endfacet
facet normal 0.5149940014367363 0.8571937811744663 0
outer loop
vertex 4.40394 12.56926 10
vertex 4.40394 12.56926 0
vertex 3.47305 13.12853 0
endloop
endfacet
facet normal 0.5149940014367363 0.8571937811744663 0
outer loop
vertex 4.40394 12.56926 10
vertex 3.47305 13.12853 0
vertex 3.47305 13.12853 10
endloop
endfacet
facet normal 0.13860512794820212 0.23070453905216082 0.9631012585222763
outer loop
vertex 4.40394 12.56926 10
vertex 3.47305 13.12853 10
vertex -6.983 6.12106 13.18338
endloop
endfacet
facet normal 0.04779393296602708 0.33572348019678316 0.9407473012537422
outer loop
vertex -6.11495 6.88967 12.86744
vertex 1.51428 13.83856 10
vertex 0.50649 13.98203 10
endloop
endfacet
facet normal 0.03231563830603127 0.34855090172574094 0.9367326024149296
outer loop
vertex -6.11495 6.88967 12.86744
vertex 0.50649 13.98203 10
vertex -6.983 6.12106 13.18338
endloop
endfacet
facet normal 0.11215952237211663 0.26679248656427557 0.9572053126963461
outer loop
vertex -6.11495 6.88967 12.86744
vertex -6.983 6.12106 13.18338
vertex 2.50653 13.55308 10
endloop
endfacet
facet normal 0.08577210941029183 0.29812027309220324 0.9506668438621065
outer loop
vertex -6.11495 6.88967 12.86744
vertex 2.50653 13.55308 10
vertex 1.51428 13.83856 10
endloop
endfacet
facet normal 0.18987065959467966 -0.12033456335372839 0.9744068582925454
outer loop
vertex 7.58758 -9.11921 10
vertex -8.39104 -4.40394 13.69587
vertex -7.74431 -5.28964 13.46047
endloop
endfacet
facet normal 0.1879318753664205 -0.1276007502135235 0.9738581307183334
outer loop
vertex 7.58758 -9.11921 10
vertex -7.74431 -5.28964 13.46047
vertex 6.88967 -10.1471 10
endloop
endfacet
facet normal 0.6486691283869273 -0.4404291036905903 0.6206855616977467
outer loop
vertex 7.58758 -9.11921 10
vertex 6.88967 -10.1471 10
vertex 13.82341 -6.12106 5.61047
endloop
endfacet
facet normal 0.6494658684462378 -0.5403849064112571 0.5349562960151707
outer loop
vertex 6.12106 -11.07086 10
vertex 12.95536 -6.88967 5.92641
vertex 6.88967 -10.1471 10
endloop
endfacet
facet normal 0.1801343071331965 -0.14987987118477328 0.9721561888952202
outer loop
vertex 6.12106 -11.07086 10
vertex 6.88967 -10.1471 10
vertex -7.74431 -5.28964 13.46047
endloop
endfacet
facet normal 0.1737349844553022 -0.16450851255908355 0.9709547386319889
outer loop
vertex 6.12106 -11.07086 10
vertex -7.74431 -5.28964 13.46047
vertex -6.983 -6.12106 13.18338
endloop
endfacet
facet normal 0.20692297650237138 -0.01994528281419742 0.978153907873838
outer loop
vertex -9.58379 -1.51428 14.12999
vertex 9.94869 -1.41636 10
vertex -9.71861 -0.50649 14.17906
endloop
endfacet
facet normal 0.9396927112094516 0 -0.342019894888923
outer loop
vertex 16.55901 -0.50649 4.61479
vertex 13.13881 -0.50649 -4.78214
vertex 13.13881 0.50649 -4.78214
endloop
endfacet
facet normal 0.9396927112094516 0 -0.342019894888923
outer loop
vertex 16.55901 -0.50649 4.61479
vertex 13.13881 0.50649 -4.78214
vertex 16.55901 0.50649 4.61479
endloop
endfacet
facet normal 0.634560115719772 0 0.7728735081096452
outer loop
vertex 16.55901 -0.50649 4.61479
vertex 16.55901 0.50649 4.61479
vertex 10 0 10
endloop
endfacet
facet normal 0.6333341752147369 -0.022943585338663038 0.7735382436550091
outer loop
vertex 16.55901 -0.50649 4.61479
vertex 10 0 10
vertex 9.94869 -1.41636 10
endloop
endfacet
facet normal 0.20546282449667908 -0.04067203891484432 0.97781941737744
outer loop
vertex 9.54139 -4.19108 10
vertex -9.58379 -1.51428 14.12999
vertex -9.31553 -2.50653 14.03235
endloop
endfacet
facet normal -0.1978040192661703 -0.06529695314957161 -0.978064352622838
outer loop
vertex 12.73573 -2.50653 -4.63543
vertex 12.33678 -3.47305 -4.49022
vertex -9.18958 -5.52098 0
endloop
endfacet
facet normal -0.19960393391867207 -0.052802962622699644 -0.9784529200234706
outer loop
vertex 12.73573 -2.50653 -4.63543
vertex -9.18958 -5.52098 0
vertex -9.54139 -4.19108 0
endloop
endfacet
facet normal -0.200482685557708 -0.042114115872616126 -0.9787916499622569
outer loop
vertex 12.73573 -2.50653 -4.63543
vertex -9.54139 -4.19108 0
vertex 13.00399 -1.51428 -4.73307
endloop
endfacet
facet normal -0.635183825532438 -0.5285016023019911 0.563229583869851
outer loop
vertex -6.88967 -10.1471 10
vertex -6.12106 -11.07086 10
vertex -8.39104 -4.40394 13.69587
endloop
endfacet
facet normal -0.710956461091045 -0.5024714895810544 0.49199930141321707
outer loop
vertex -6.88967 -10.1471 10
vertex -8.39104 -4.40394 13.69587
vertex -8.91658 -3.47305 13.88715
endloop
endfacet
facet normal -0.7947696428040903 -0.6016086194666596 0.08005175738532531
outer loop
vertex -6.88967 -10.1471 10
vertex -11.81124 -4.40394 4.29894
vertex -11.16451 -5.28964 4.06355
endloop
endfacet
facet normal -0.7683577919760678 -0.6393083511850757 0.030185023019399886
outer loop
vertex -6.88967 -10.1471 10
vertex -11.16451 -5.28964 4.06355
vertex -6.12106 -11.07086 10
endloop
endfacet
facet normal 0.6494658684462378 0.5403849064112571 0.5349562960151707
outer loop
vertex 6.88967 10.1471 10
vertex 12.95536 6.88967 5.92641
vertex 6.12106 11.07086 10
endloop
endfacet
facet normal -0.710956461091045 0.5024714895810546 0.4919993014132171
outer loop
vertex -8.39104 4.40394 13.69587
vertex -6.88967 10.1471 10
vertex -8.91658 3.47305 13.88715
endloop
endfacet
facet normal 0.1981416337803974 0.08871793364654934 0.9761501017836968
outer loop
vertex -8.39104 4.40394 13.69587
vertex -8.91658 3.47305 13.88715
vertex 8.20763 7.99776 10
endloop
endfacet
facet normal 0.1939125919646783 0.1072143231064236 0.97514255142434
outer loop
vertex -8.39104 4.40394 13.69587
vertex 8.20763 7.99776 10
vertex 7.58758 9.11921 10
endloop
endfacet
facet normal 0.6363369526835653 0.1683357420284273 0.7528202711173051
outer loop
vertex 9.18958 5.52098 10
vertex 9.54139 4.19108 10
vertex 15.75698 3.47305 4.9067
endloop
endfacet
facet normal 0.6391547860353634 0.208733084037581 0.7402105505302186
outer loop
vertex 9.18958 5.52098 10
vertex 15.75698 3.47305 4.9067
vertex 15.23145 4.40394 5.09798
endloop
endfacet
facet normal 0.20692297650237132 0.019945282814197725 0.978153907873838
outer loop
vertex 9.94869 1.41636 10
vertex -9.58379 1.51428 14.12999
vertex -9.71861 0.50649 14.17906
endloop
endfacet
facet normal 0.2075086391042146 0.0075173460648686975 0.9782043008519529
outer loop
vertex 9.94869 1.41636 10
vertex -9.71861 0.50649 14.17906
vertex 10 0 10
endloop
endfacet
facet normal 0.6333341752147369 0.022943585338662975 0.7735382436550091
outer loop
vertex 9.94869 1.41636 10
vertex 10 0 10
vertex 16.55901 0.50649 4.61479
endloop
endfacet
facet normal 0.6348062262510452 0.0473718889195516 0.7712178416330242
outer loop
vertex 9.94869 1.41636 10
vertex 16.55901 0.50649 4.61479
vertex 16.42419 1.51428 4.66386
endloop
endfacet
facet normal 0.20546282449667913 0.040672038914844375 0.97781941737744
outer loop
vertex -9.31553 2.50653 14.03235
vertex -9.58379 1.51428 14.12999
vertex 9.54139 4.19108 10
endloop
endfacet
facet normal 0.20418961645117226 0.054016053059393325 0.9774399554680624
outer loop
vertex -9.31553 2.50653 14.03235
vertex 9.54139 4.19108 10
vertex 9.18958 5.52098 10
endloop
endfacet
facet normal 0.20265074500089658 0.06315823662889154 0.9772122147704204
outer loop
vertex -9.31553 2.50653 14.03235
vertex 9.18958 5.52098 10
vertex -8.91658 3.47305 13.88715
endloop
endfacet
facet normal -0.8603500081813006 0.4021694190026486 0.3131415364360151
outer loop
vertex -9.31553 2.50653 14.03235
vertex -8.91658 3.47305 13.88715
vertex -12.33678 3.47305 4.49022
endloop
endfacet
facet normal -0.8603487800561653 0.4021721348650959 0.3131414226733969
outer loop
vertex -9.31553 2.50653 14.03235
vertex -12.33678 3.47305 4.49022
vertex -12.73573 2.50653 4.63543
endloop
endfacet
facet normal -0.9030601671005957 0.2764907320414973 0.32868709997716883
outer loop
vertex -9.31553 2.50653 14.03235
vertex -12.73573 2.50653 4.63543
vertex -13.00399 1.51428 4.73307
endloop
endfacet
facet normal -0.9030601671005953 0.2764907320414979 0.32868709997716866
outer loop
vertex -9.31553 2.50653 14.03235
vertex -13.00399 1.51428 4.73307
vertex -9.58379 1.51428 14.12999
endloop
endfacet
facet normal -0.16998827915192116 -0.17444906568145832 -0.969882213690835
outer loop
vertex -6.12106 -11.07086 0
vertex 10.40321 -6.12106 -3.78646
vertex -5.28964 -11.88102 0
endloop
endfacet
facet normal -0.697890560434355 -0.7162044161108069 0
outer loop
vertex -6.12106 -11.07086 0
vertex -5.28964 -11.88102 0
vertex -5.28964 -11.88102 10
endloop
endfacet
facet normal -0.697890560434355 -0.7162044161108069 0
outer loop
vertex -6.12106 -11.07086 0
vertex -5.28964 -11.88102 10
vertex -6.12106 -11.07086 10
endloop
endfacet
facet normal -0.7535523925424921 -0.6573878548417864 0
outer loop
vertex -6.12106 -11.07086 0
vertex -6.12106 -11.07086 10
vertex -11.16451 -5.28964 4.06355
endloop
endfacet
facet normal -0.7679610725689081 -0.6389782627383611 -0.0440746045549808
outer loop
vertex -6.12106 -11.07086 0
vertex -11.16451 -5.28964 4.06355
vertex -6.88967 -10.1471 0
endloop
endfacet
facet normal -0.8404991704094381 -0.29448661685556937 -0.45479531333777795
outer loop
vertex -8.74347 -6.79423 0
vertex -12.33678 -3.47305 4.49022
vertex -9.18958 -5.52098 0
endloop
endfacet
facet normal -0.197397947707323 -0.06916253559922536 -0.9778806644526841
outer loop
vertex -8.74347 -6.79423 0
vertex -9.18958 -5.52098 0
vertex 12.33678 -3.47305 -4.49022
endloop
endfacet
facet normal -0.19448144100280837 -0.08658773387198063 -0.9770770355751823
outer loop
vertex -8.74347 -6.79423 0
vertex 12.33678 -3.47305 -4.49022
vertex -8.20763 -7.99776 0
endloop
endfacet
facet normal -0.8391777131658585 -0.3736217508685231 -0.3952057097305897
outer loop
vertex -8.74347 -6.79423 0
vertex -8.20763 -7.99776 0
vertex -12.33678 -3.47305 4.49022
endloop
endfacet
facet normal -0.8387076573758048 0.2218706225591265 -0.4973357943124697
outer loop
vertex -9.18958 5.52098 0
vertex -9.54139 4.19108 0
vertex -12.73573 2.50653 4.63543
endloop
endfacet
facet normal -0.8416014326841095 0.27779943900501713 -0.46317869142756574
outer loop
vertex -9.18958 5.52098 0
vertex -12.73573 2.50653 4.63543
vertex -12.33678 3.47305 4.49022
endloop
endfacet
facet normal -0.19780401926617036 0.06529695314957124 -0.978064352622838
outer loop
vertex -9.18958 5.52098 0
vertex 12.33678 3.47305 -4.49022
vertex 12.73573 2.50653 -4.63543
endloop
endfacet
facet normal -0.1996039339186721 0.05280296262269956 -0.9784529200234706
outer loop
vertex -9.18958 5.52098 0
vertex 12.73573 2.50653 -4.63543
vertex -9.54139 4.19108 0
endloop
endfacet
facet normal -0.834152379501954 -0.030218559259119128 -0.5507055896280073
outer loop
vertex -9.94869 -1.41636 0
vertex -13.13881 -0.50649 4.78214
vertex -10 0 0
endloop
endfacet
facet normal -0.20254313483373135 -0.0073374624024393 -0.9792458527750922
outer loop
vertex -9.94869 -1.41636 0
vertex -10 0 0
vertex 13.13881 -0.50649 -4.78214
endloop
endfacet
facet normal -0.20200210681412994 -0.0206529291517248 -0.9791673020276498
outer loop
vertex -9.94869 -1.41636 0
vertex 13.13881 -0.50649 -4.78214
vertex 13.00399 -1.51428 -4.73307
endloop
endfacet
facet normal -0.2020017783343251 -0.022103446076316584 -0.9791357001056193
outer loop
vertex -9.94869 -1.41636 0
vertex 13.00399 -1.51428 -4.73307
vertex -9.7953 -2.81818 0
endloop
endfacet
facet normal -0.20108342750552932 0.037189229425252254 -0.9788679259212575
outer loop
vertex -9.7953 2.81818 0
vertex -9.54139 4.19108 0
vertex 13.00399 1.51428 -4.73307
endloop
endfacet
facet normal -0.2020017783343251 0.022103446076316584 -0.9791357001056193
outer loop
vertex -9.7953 2.81818 0
vertex 13.00399 1.51428 -4.73307
vertex -9.94869 1.41636 0
endloop
endfacet
facet normal -0.8357747583768252 0.09145217659001952 -0.5414028561589856
outer loop
vertex -9.7953 2.81818 0
vertex -9.94869 1.41636 0
vertex -13.00399 1.51428 4.73307
endloop
endfacet
facet normal -0.8370300813064852 0.1548039244988922 -0.524801284247476
outer loop
vertex -9.7953 2.81818 0
vertex -13.00399 1.51428 4.73307
vertex -9.54139 4.19108 0
endloop
endfacet
facet normal 0.6397914660619745 0.656580700988998 0.39946046493121873
outer loop
vertex 5.28964 11.88102 10
vertex 6.12106 11.07086 10
vertex 12.95536 6.88967 5.92641
endloop
endfacet
facet normal 0.6282076330044465 0.7156523069181897 0.30528174763261534
outer loop
vertex 5.28964 11.88102 10
vertex 12.95536 6.88967 5.92641
vertex 11.98946 7.58758 6.27797
endloop
endfacet
facet normal 0.6023974098872902 0.7752286788579167 0.19009959504768367
outer loop
vertex 5.28964 11.88102 10
vertex 11.98946 7.58758 6.27797
vertex 4.40394 12.56926 10
endloop
endfacet
facet normal 0.1563747846193638 0.20123960644160527 0.9669796003714222
outer loop
vertex 5.28964 11.88102 10
vertex 4.40394 12.56926 10
vertex -6.983 6.12106 13.18338
endloop
endfacet
facet normal 0.16980611673937757 0.1742621230120634 0.9699477280767358
outer loop
vertex 5.28964 11.88102 10
vertex -6.983 6.12106 13.18338
vertex 6.12106 11.07086 10
endloop
endfacet
facet normal 0.19391259196467833 -0.10721432310642365 0.97514255142434
outer loop
vertex 8.20763 -7.99776 10
vertex -8.39104 -4.40394 13.69587
vertex 7.58758 -9.11921 10
endloop
endfacet
facet normal 0.19826319074225685 -0.08827145823313994 0.976165896176513
outer loop
vertex 8.20763 -7.99776 10
vertex 8.74347 -6.79423 10
vertex -8.91658 -3.47305 13.88715
endloop
endfacet
facet normal 0.1981416337803974 -0.08871793364654904 0.9761501017836968
outer loop
vertex 8.20763 -7.99776 10
vertex -8.91658 -3.47305 13.88715
vertex -8.39104 -4.40394 13.69587
endloop
endfacet
facet normal 0.6282076330044465 -0.7156523069181897 0.30528174763261534
outer loop
vertex 5.28964 -11.88102 10
vertex 11.98946 -7.58758 6.27797
vertex 12.95536 -6.88967 5.92641
endloop
endfacet
facet normal 0.6397914660619745 -0.656580700988998 0.39946046493121873
outer loop
vertex 5.28964 -11.88102 10
vertex 12.95536 -6.88967 5.92641
vertex 6.12106 -11.07086 10
endloop
endfacet
facet normal 0.16980611673937757 -0.1742621230120634 0.9699477280767358
outer loop
vertex 5.28964 -11.88102 10
vertex 6.12106 -11.07086 10
vertex -6.983 -6.12106 13.18338
endloop
endfacet
facet normal 0.1563747846193638 -0.20123960644160527 0.9669796003714222
outer loop
vertex 5.28964 -11.88102 10
vertex -6.983 -6.12106 13.18338
vertex 4.40394 -12.56926 10
endloop
endfacet
facet normal 0.6023974098872902 -0.7752286788579167 0.19009959504768367
outer loop
vertex 5.28964 -11.88102 10
vertex 4.40394 -12.56926 10
vertex 11.98946 -7.58758 6.27797
endloop
endfacet
facet normal -0.9030601671005956 -0.2764907320414976 0.3286870999771688
outer loop
vertex -13.00399 -1.51428 4.73307
vertex -12.73573 -2.50653 4.63543
vertex -9.31553 -2.50653 14.03235
endloop
endfacet
facet normal -0.9030601671005953 -0.2764907320414979 0.32868709997716866
outer loop
vertex -13.00399 -1.51428 4.73307
vertex -9.31553 -2.50653 14.03235
vertex -9.58379 -1.51428 14.12999
endloop
endfacet
facet normal -0.9303124217422883 -0.140942183003625 0.338606111879528
outer loop
vertex -13.00399 -1.51428 4.73307
vertex -9.58379 -1.51428 14.12999
vertex -9.71861 -0.50649 14.17906
endloop
endfacet
facet normal -0.9303124217422883 -0.14094218300362518 0.338606111879528
outer loop
vertex -13.00399 -1.51428 4.73307
vertex -9.71861 -0.50649 14.17906
vertex -13.13881 -0.50649 4.78214
endloop
endfacet
facet normal -0.8362748645059361 -0.08550405964650967 -0.5416026281135867
outer loop
vertex -13.00399 -1.51428 4.73307
vertex -13.13881 -0.50649 4.78214
vertex -9.94869 -1.41636 0
endloop
endfacet
facet normal -0.8357747583768252 -0.09145217659001952 -0.5414028561589855
outer loop
vertex -13.00399 -1.51428 4.73307
vertex -9.94869 -1.41636 0
vertex -9.7953 -2.81818 0
endloop
endfacet
facet normal -0.8370300813064853 -0.1548039244988919 -0.5248012842474761
outer loop
vertex -13.00399 -1.51428 4.73307
vertex -9.7953 -2.81818 0
vertex -9.54139 -4.19108 0
endloop
endfacet
facet normal -0.8392934993896052 -0.17629887793343296 -0.5143006197952353
outer loop
vertex -13.00399 -1.51428 4.73307
vertex -9.54139 -4.19108 0
vertex -12.73573 -2.50653 4.63543
endloop
endfacet
facet normal 0.9030602795182481 -0.27649073204110153 -0.32868679111244986
outer loop
vertex 16.42419 -1.51428 4.66386
vertex 16.15593 -2.50653 4.7615
vertex 12.73573 -2.50653 -4.63543
endloop
endfacet
facet normal 0.9030602795182477 -0.27649073204110325 -0.3286867911124496
outer loop
vertex 16.42419 -1.51428 4.66386
vertex 12.73573 -2.50653 -4.63543
vertex 13.00399 -1.51428 -4.73307
endloop
endfacet
facet normal 0.9303125375523151 -0.14094218300376557 -0.33860579369394345
outer loop
vertex 16.42419 -1.51428 4.66386
vertex 13.00399 -1.51428 -4.73307
vertex 13.13881 -0.50649 -4.78214
endloop
endfacet
facet normal 0.930312537552315 -0.1409421830037666 -0.33860579369394356
outer loop
vertex 16.42419 -1.51428 4.66386
vertex 13.13881 -0.50649 -4.78214
vertex 16.55901 -0.50649 4.61479
endloop
endfacet
facet normal 0.6348062262510453 -0.0473718889195513 0.7712178416330242
outer loop
vertex 16.42419 -1.51428 4.66386
vertex 16.55901 -0.50649 4.61479
vertex 9.94869 -1.41636 10
endloop
endfacet
facet normal 0.6422240168013155 -0.27922765417096523 0.713848884141289
outer loop
vertex 14.58471 -5.28964 5.33338
vertex 15.23145 -4.40394 5.09798
vertex 8.74347 -6.79423 10
endloop
endfacet
facet normal 0.6419968679667482 -0.28583217845114167 0.7114351602800922
outer loop
vertex 14.58471 -5.28964 5.33338
vertex 8.74347 -6.79423 10
vertex 8.20763 -7.99776 10
endloop
endfacet
facet normal 0.6456140825453502 -0.3569601960695926 0.6751013811577365
outer loop
vertex 14.58471 -5.28964 5.33338
vertex 8.20763 -7.99776 10
vertex 7.58758 -9.11921 10
endloop
endfacet
facet normal 0.647145624499943 -0.3705157270350864 0.6662736950459923
outer loop
vertex 14.58471 -5.28964 5.33338
vertex 7.58758 -9.11921 10
vertex 13.82341 -6.12106 5.61047
endloop
endfacet
facet normal 0.636977703688474 -0.14930858679978834 0.7562845700605089
outer loop
vertex 15.75698 -3.47305 4.9067
vertex 16.15593 -2.50653 4.7615
vertex 9.54139 -4.19108 10
endloop
endfacet
facet normal 0.8055028508811769 -0.5149860688032686 -0.29317998935952544
outer loop
vertex 15.75698 -3.47305 4.9067
vertex 15.23145 -4.40394 5.09798
vertex 11.81124 -4.40394 -4.29894
endloop
endfacet
facet normal 0.8054995368942914 -0.5149924269232209 -0.2931779259678551
outer loop
vertex 15.75698 -3.47305 4.9067
vertex 11.81124 -4.40394 -4.29894
vertex 12.33678 -3.47305 -4.49022
endloop
endfacet
facet normal 0.8603487800561653 -0.40217213486509584 -0.313141422673397
outer loop
vertex 15.75698 -3.47305 4.9067
vertex 12.33678 -3.47305 -4.49022
vertex 12.73573 -2.50653 -4.63543
endloop
endfacet
facet normal 0.8603500081813005 -0.40216941900264874 -0.3131415364360152
outer loop
vertex 15.75698 -3.47305 4.9067
vertex 12.73573 -2.50653 -4.63543
vertex 16.15593 -2.50653 4.7615
endloop
endfacet
facet normal -0.8472922726825377 -0.4684681204483547 0.25026670728653866
outer loop
vertex -7.58758 -9.11921 10
vertex -8.20763 -7.99776 10
vertex -12.33678 -3.47305 4.49022
endloop
endfacet
facet normal -0.8361909386767219 -0.5123051722075636 0.19577569972885134
outer loop
vertex -7.58758 -9.11921 10
vertex -12.33678 -3.47305 4.49022
vertex -11.81124 -4.40394 4.29894
endloop
endfacet
facet normal -0.8183678225467352 -0.5556500083020485 0.14672142070620967
outer loop
vertex -7.58758 -9.11921 10
vertex -11.81124 -4.40394 4.29894
vertex -6.88967 -10.1471 10
endloop
endfacet
facet normal -0.7300707124366026 -0.49569861650237845 0.4704036951810002
outer loop
vertex -7.58758 -9.11921 10
vertex -6.88967 -10.1471 10
vertex -8.91658 -3.47305 13.88715
endloop
endfacet
facet normal -0.8115326153759529 -0.4486965965168839 0.3742808817655939
outer loop
vertex -7.58758 -9.11921 10
vertex -8.91658 -3.47305 13.88715
vertex -8.20763 -7.99776 10
endloop
endfacet
facet normal 0.6515465899122491 0.5020819317193863 0.5686833697363138
outer loop
vertex 13.82341 6.12106 5.61047
vertex 12.95536 6.88967 5.92641
vertex 6.88967 10.1471 10
endloop
endfacet
facet normal 0.6486691283869273 0.44042910369059024 0.6206855616977468
outer loop
vertex 13.82341 6.12106 5.61047
vertex 6.88967 10.1471 10
vertex 7.58758 9.11921 10
endloop
endfacet
facet normal 0.647145624499943 0.3705157270350864 0.6662736950459924
outer loop
vertex 13.82341 6.12106 5.61047
vertex 7.58758 9.11921 10
vertex 14.58471 5.28964 5.33338
endloop
endfacet
facet normal 0.6730127356424093 0.6978898329975813 -0.24495640155286544
outer loop
vertex 13.82341 6.12106 5.61047
vertex 14.58471 5.28964 5.33338
vertex 11.16451 5.28964 -4.06355
endloop
endfacet
facet normal 0.6730127356424087 0.697889832997582 -0.24495640155286533
outer loop
vertex 13.82341 6.12106 5.61047
vertex 11.16451 5.28964 -4.06355
vertex 10.40321 6.12106 -3.78646
endloop
endfacet
facet normal 0.6451341704834915 0.7270945110633822 -0.23480944200793644
outer loop
vertex 13.82341 6.12106 5.61047
vertex 10.40321 6.12106 -3.78646
vertex 5.28964 11.88102 0
endloop
endfacet
facet normal 0.6217116750992681 0.7671272618737279 -0.1580833866520422
outer loop
vertex 13.82341 6.12106 5.61047
vertex 5.28964 11.88102 0
vertex 12.95536 6.88967 5.92641
endloop
endfacet
facet normal 0.18013430713319656 0.14987987118477353 0.9721561888952202
outer loop
vertex -7.74431 5.28964 13.46047
vertex 6.88967 10.1471 10
vertex 6.12106 11.07086 10
endloop
endfacet
facet normal 0.17373498445530258 0.16450851255908275 0.9709547386319889
outer loop
vertex -7.74431 5.28964 13.46047
vertex 6.12106 11.07086 10
vertex -6.983 6.12106 13.18338
endloop
endfacet
facet normal -0.2426455580567355 0.49937268193336404 0.831715130134119
outer loop
vertex -7.74431 5.28964 13.46047
vertex -6.983 6.12106 13.18338
vertex -3.47305 13.12853 10
endloop
endfacet
facet normal -0.3130712697605007 0.5210987793147367 0.7940040568203913
outer loop
vertex -7.74431 5.28964 13.46047
vertex -3.47305 13.12853 10
vertex -4.40394 12.56926 10
endloop
endfacet
facet normal -0.41920839520626435 0.5394816860894285 0.7302217688912704
outer loop
vertex -7.74431 5.28964 13.46047
vertex -4.40394 12.56926 10
vertex -5.28964 11.88102 10
endloop
endfacet
facet normal -0.493353301780961 0.5412216962854479 0.6809416972779141
outer loop
vertex -7.74431 5.28964 13.46047
vertex -5.28964 11.88102 10
vertex -8.39104 4.40394 13.69587
endloop
endfacet
facet normal 0.18987065959467953 0.12033456335372761 0.9744068582925456
outer loop
vertex -7.74431 5.28964 13.46047
vertex -8.39104 4.40394 13.69587
vertex 7.58758 9.11921 10
endloop
endfacet
facet normal 0.18793187536642042 0.1276007502135235 0.9738581307183334
outer loop
vertex -7.74431 5.28964 13.46047
vertex 7.58758 9.11921 10
vertex 6.88967 10.1471 10
endloop
endfacet
facet normal -0.635183825532438 0.5285016023019911 0.563229583869851
outer loop
vertex -6.12106 11.07086 10
vertex -6.88967 10.1471 10
vertex -8.39104 4.40394 13.69587
endloop
endfacet
facet normal -0.528265021894461 0.5421276099825869 0.6534781718905481
outer loop
vertex -6.12106 11.07086 10
vertex -8.39104 4.40394 13.69587
vertex -5.28964 11.88102 10
endloop
endfacet
facet normal -0.697890560434355 0.7162044161108069 0
outer loop
vertex -6.12106 11.07086 10
vertex -5.28964 11.88102 10
vertex -5.28964 11.88102 0
endloop
endfacet
facet normal -0.697890560434355 0.7162044161108069 0
outer loop
vertex -6.12106 11.07086 10
vertex -5.28964 11.88102 0
vertex -6.12106 11.07086 0
endloop
endfacet
facet normal -0.7535523925424921 0.6573878548417864 0
outer loop
vertex -6.12106 11.07086 10
vertex -6.12106 11.07086 0
vertex -11.16451 5.28964 4.06355
endloop
endfacet
facet normal -0.7683577919760678 0.6393083511850757 0.03018502301939995
outer loop
vertex -6.12106 11.07086 10
vertex -11.16451 5.28964 4.06355
vertex -6.88967 10.1471 10
endloop
endfacet
facet normal 0.19826319074225685 0.08827145823313994 0.976165896176513
outer loop
vertex 8.74347 6.79423 10
vertex 8.20763 7.99776 10
vertex -8.91658 3.47305 13.88715
endloop
endfacet
facet normal 0.20173022138665458 0.07068043908329102 0.9768875028939027
outer loop
vertex 8.74347 6.79423 10
vertex -8.91658 3.47305 13.88715
vertex 9.18958 5.52098 10
endloop
endfacet
facet normal 0.6386881545615671 0.22377786972822317 0.7362071082532674
outer loop
vertex 8.74347 6.79423 10
vertex 9.18958 5.52098 10
vertex 15.23145 4.40394 5.09798
endloop
endfacet
facet normal 0.6422240168013154 0.2792276541709653 0.713848884141289
outer loop
vertex 8.74347 6.79423 10
vertex 15.23145 4.40394 5.09798
vertex 14.58471 5.28964 5.33338
endloop
endfacet
facet normal 0.6419968679667482 0.28583217845114156 0.7114351602800923
outer loop
vertex 8.74347 6.79423 10
vertex 14.58471 5.28964 5.33338
vertex 8.20763 7.99776 10
endloop
endfacet
facet normal 0.20583316254748463 0.03806766574581666 0.9778463897874582
outer loop
vertex 9.7953 2.81818 10
vertex 9.54139 4.19108 10
vertex -9.58379 1.51428 14.12999
endloop
endfacet
facet normal 0.2069240351319384 0.02264204944207389 0.9780949755937707
outer loop
vertex 9.7953 2.81818 10
vertex -9.58379 1.51428 14.12999
vertex 9.94869 1.41636 10
endloop
endfacet
facet normal 0.6337909943540782 0.06935070167637214 0.7703891585767959
outer loop
vertex 9.7953 2.81818 10
vertex 9.94869 1.41636 10
vertex 16.42419 1.51428 4.66386
endloop
endfacet
facet normal 0.6355788572490274 0.096456988273635 0.7659866615230321
outer loop
vertex 9.7953 2.81818 10
vertex 16.42419 1.51428 4.66386
vertex 16.15593 2.50653 4.7615
endloop
endfacet
facet normal 0.634756517077547 0.11739458609597168 0.7637425450915625
outer loop
vertex 9.7953 2.81818 10
vertex 16.15593 2.50653 4.7615
vertex 9.54139 4.19108 10
endloop
endfacet
facet normal -0.5149940014367363 -0.8571937811744663 0
outer loop
vertex -3.47305 -13.12853 10
vertex -4.40394 -12.56926 10
vertex -4.40394 -12.56926 0
endloop
endfacet
facet normal -0.5149940014367363 -0.8571937811744663 0
outer loop
vertex -3.47305 -13.12853 10
vertex -4.40394 -12.56926 0
vertex -3.47305 -13.12853 0
endloop
endfacet
facet normal -0.4021680723632683 -0.9155658586751764 0
outer loop
vertex -3.47305 -13.12853 10
vertex -3.47305 -13.12853 0
vertex -2.50653 -13.55308 0
endloop
endfacet
facet normal -0.4021680723632683 -0.9155658586751764 0
outer loop
vertex -3.47305 -13.12853 10
vertex -2.50653 -13.55308 0
vertex -2.50653 -13.55308 10
endloop
endfacet
facet normal -0.21586024115651548 -0.4914220710931465 0.8437468247823949
outer loop
vertex -3.47305 -13.12853 10
vertex -2.50653 -13.55308 10
vertex -6.983 -6.12106 13.18338
endloop
endfacet
facet normal -0.2426455580567361 -0.49937268193336376 0.8317151301341191
outer loop
vertex -3.47305 -13.12853 10
vertex -6.983 -6.12106 13.18338
vertex -7.74431 -5.28964 13.46047
endloop
endfacet
facet normal -0.31307126976050076 -0.5210987793147367 0.7940040568203912
outer loop
vertex -3.47305 -13.12853 10
vertex -7.74431 -5.28964 13.46047
vertex -4.40394 -12.56926 10
endloop
endfacet
facet normal 0.45564267217047716 -0.7262106792757419 -0.5147890874942985
outer loop
vertex 9.53515 -6.88967 -3.47051
vertex 10.40321 -6.12106 -3.78646
vertex 4.40394 -12.56926 0
endloop
endfacet
facet normal 0.4334899980545009 -0.7215325411499883 -0.5398862969629339
outer loop
vertex 9.53515 -6.88967 -3.47051
vertex 4.40394 -12.56926 0
vertex 3.47305 -13.12853 0
endloop
endfacet
facet normal 0.29253289989008324 -0.6659731442745582 -0.6862246524185479
outer loop
vertex 9.53515 -6.88967 -3.47051
vertex 3.47305 -13.12853 0
vertex 2.50653 -13.55308 0
endloop
endfacet
facet normal 0.1697935818208872 -0.5901558132330663 -0.7892314335349624
outer loop
vertex 9.53515 -6.88967 -3.47051
vertex 2.50653 -13.55308 0
vertex 1.51428 -13.83856 0
endloop
endfacet
facet normal 0.07283792084146942 -0.5116423520235883 -0.8561055664480066
outer loop
vertex 9.53515 -6.88967 -3.47051
vertex 1.51428 -13.83856 0
vertex 0.50649 -13.98203 0
endloop
endfacet
facet normal 0 -0.43953044987600803 -0.898227690305634
outer loop
vertex 9.53515 -6.88967 -3.47051
vertex 0.50649 -13.98203 0
vertex -0.50649 -13.98203 0
endloop
endfacet
facet normal -0.053616893240023465 -0.37662625523358895 -0.9248123553608112
outer loop
vertex 9.53515 -6.88967 -3.47051
vertex -0.50649 -13.98203 0
vertex -1.51428 -13.83856 0
endloop
endfacet
facet normal -0.09286211569441478 -0.32276318585464236 -0.9419132408697304
outer loop
vertex 9.53515 -6.88967 -3.47051
vertex -1.51428 -13.83856 0
vertex -2.50653 -13.55308 0
endloop
endfacet
facet normal -0.12157185171743541 -0.2767674623058202 -0.9532156401773894
outer loop
vertex 9.53515 -6.88967 -3.47051
vertex -2.50653 -13.55308 0
vertex -3.47305 -13.12853 0
endloop
endfacet
facet normal -0.14256152267479819 -0.23728985256270252 -0.9609212965292288
outer loop
vertex 9.53515 -6.88967 -3.47051
vertex -3.47305 -13.12853 0
vertex -4.40394 -12.56926 0
endloop
endfacet
facet normal -0.14520398944865118 -0.2314350368077544 -0.9619530264966109
outer loop
vertex 9.53515 -6.88967 -3.47051
vertex -4.40394 -12.56926 0
vertex 10.40321 -6.12106 -3.78646
endloop
endfacet
facet normal -0.19448144100280837 0.08658773387198063 -0.9770770355751823
outer loop
vertex -8.74347 6.79423 0
vertex -8.20763 7.99776 0
vertex 12.33678 3.47305 -4.49022
endloop
endfacet
facet normal -0.197397947707323 0.06916253559922536 -0.9778806644526841
outer loop
vertex -8.74347 6.79423 0
vertex 12.33678 3.47305 -4.49022
vertex -9.18958 5.52098 0
endloop
endfacet
facet normal -0.8404991704094381 0.29448661685556937 -0.45479531333777795
outer loop
vertex -8.74347 6.79423 0
vertex -9.18958 5.52098 0
vertex -12.33678 3.47305 4.49022
endloop
endfacet
facet normal -0.8391777131658585 0.3736217508685231 -0.3952057097305897
outer loop
vertex -8.74347 6.79423 0
vertex -12.33678 3.47305 4.49022
vertex -8.20763 7.99776 0
endloop
endfacet
facet normal 0.634756517077547 -0.11739458609597168 0.7637425450915625
outer loop
vertex 9.7953 -2.81818 10
vertex 9.54139 -4.19108 10
vertex 16.15593 -2.50653 4.7615
endloop
endfacet
facet normal 0.6355788572490274 -0.096456988273635 0.7659866615230321
outer loop
vertex 9.7953 -2.81818 10
vertex 16.15593 -2.50653 4.7615
vertex 16.42419 -1.51428 4.66386
endloop
endfacet
facet normal 0.6337909943540782 -0.06935070167637214 0.7703891585767959
outer loop
vertex 9.7953 -2.81818 10
vertex 16.42419 -1.51428 4.66386
vertex 9.94869 -1.41636 10
endloop
endfacet
facet normal 0.2069240351319384 -0.02264204944207389 0.9780949755937707
outer loop
vertex 9.7953 -2.81818 10
vertex 9.94869 -1.41636 10
vertex -9.58379 -1.51428 14.12999
endloop
endfacet
facet normal 0.20583316254748463 -0.03806766574581666 0.9778463897874582
outer loop
vertex 9.7953 -2.81818 10
vertex -9.58379 -1.51428 14.12999
vertex 9.54139 -4.19108 10
endloop
endfacet
facet normal 0.7420088521407211 -0.6135837868748893 -0.27006999061184056
outer loop
vertex 11.16451 -5.28964 -4.06355
vertex 11.81124 -4.40394 -4.29894
vertex 15.23145 -4.40394 5.09798
endloop
endfacet
facet normal 0.7420039958159892 -0.6135909116271286 -0.27006714602427023
outer loop
vertex 11.16451 -5.28964 -4.06355
vertex 15.23145 -4.40394 5.09798
vertex 14.58471 -5.28964 5.33338
endloop
endfacet
facet normal 0.6730127356424095 -0.697889832997581 -0.2449564015528655
outer loop
vertex 11.16451 -5.28964 -4.06355
vertex 14.58471 -5.28964 5.33338
vertex 13.82341 -6.12106 5.61047
endloop
endfacet
facet normal 0.6730127356424086 -0.6978898329975821 -0.24495640155286535
outer loop
vertex 11.16451 -5.28964 -4.06355
vertex 13.82341 -6.12106 5.61047
vertex 10.40321 -6.12106 -3.78646
endloop
endfacet
facet normal -0.17301581716680997 -0.16517424646126194 -0.9709701310112765
outer loop
vertex 11.16451 -5.28964 -4.06355
vertex 10.40321 -6.12106 -3.78646
vertex -6.12106 -11.07086 0
endloop
endfacet
facet normal -0.17885859199866153 -0.14881841863264378 -0.9725547194600084
outer loop
vertex 11.16451 -5.28964 -4.06355
vertex -6.12106 -11.07086 0
vertex -6.88967 -10.1471 0
endloop
endfacet
facet normal -0.18546632718278394 -0.12592670850396134 -0.9745484624002477
outer loop
vertex 11.16451 -5.28964 -4.06355
vertex -6.88967 -10.1471 0
vertex -7.58758 -9.11921 0
endloop
endfacet
facet normal -0.18607474373484484 -0.12319490387361731 -0.9747816193402408
outer loop
vertex 11.16451 -5.28964 -4.06355
vertex -7.58758 -9.11921 0
vertex 11.81124 -4.40394 -4.29894
endloop
endfacet
facet normal 0.6386881545615671 -0.22377786972822317 0.7362071082532674
outer loop
vertex 9.18958 -5.52098 10
vertex 8.74347 -6.79423 10
vertex 15.23145 -4.40394 5.09798
endloop
endfacet
facet normal 0.6391547860353634 -0.208733084037581 0.7402105505302186
outer loop
vertex 9.18958 -5.52098 10
vertex 15.23145 -4.40394 5.09798
vertex 15.75698 -3.47305 4.9067
endloop
endfacet
facet normal 0.6363369526835653 -0.1683357420284273 0.7528202711173051
outer loop
vertex 9.18958 -5.52098 10
vertex 15.75698 -3.47305 4.9067
vertex 9.54139 -4.19108 10
endloop
endfacet
facet normal 0.20418961645117226 -0.05401605305939321 0.9774399554680624
outer loop
vertex 9.18958 -5.52098 10
vertex 9.54139 -4.19108 10
vertex -9.31553 -2.50653 14.03235
endloop
endfacet
facet normal 0.2026507450008967 -0.06315823662889135 0.9772122147704206
outer loop
vertex 9.18958 -5.52098 10
vertex -9.31553 -2.50653 14.03235
vertex -8.91658 -3.47305 13.88715
endloop
endfacet
facet normal 0.20173022138665458 -0.07068043908329102 0.9768875028939027
outer loop
vertex 9.18958 -5.52098 10
vertex -8.91658 -3.47305 13.88715
vertex 8.74347 -6.79423 10
endloop
endfacet
endsolid JSxCAD
