<?xml version="1.0" encoding="UTF-8"?>
<!-- Generated by jsxcad -->
<!DOCTYPE svg PUBLIC "-//W3C//DTD SVG 1.1 Tiny//EN" "http://www.w3.org/Graphics/SVG/1.1/DTD/svg11-tiny.dtd">
<svg baseProfile="tiny" height="10 mm" width="20 mm" viewBox="0 0 20 10" version="1.1" stroke="black" stroke-width=".1" fill="none" xmlns="http://www.w3.org/2000/svg">
<path d="M0 0 L20 0 L20 10 L19.94869 10 L19.89739 10 L19.84582 10 L19.79371 10 L19.74079 10 L19.68675 10 L19.63128 10 L19.57401 10 L19.51455 10 L19.45244 10 L19.38716 10 L19.31811 10 L19.24454 10 L19.16559 10 L19.08019 10 L18.98702 10 L18.8844 10 L18.77022 10 L18.64171 10 L18.49517 10 L18.3256 10 L18.12599 10 L17.88624 10 L17.59119 10 L17.21707 10 L16.72423 10 L16.04134 10 L15.02579 10 L13.34477 10 L10 10 L0 10 z"/>
</svg>